<svg width="110" height="35" viewBox="0 0 110 35" fill="none" xmlns="http://www.w3.org/2000/svg">
<path d="M29.0693 15.2139C29.9352 15.2139 30.5892 15.4372 31.0312 15.8838C31.4779 16.3258 31.7012 17.0368 31.7012 18.0166V23H29.6094V18.5361C29.6094 17.9893 29.516 17.5768 29.3291 17.2988C29.1423 17.0208 28.8529 16.8818 28.4609 16.8818C27.9095 16.8818 27.5176 17.0801 27.2852 17.4766C27.0527 17.8685 26.9365 18.4313 26.9365 19.165V23H24.8516V18.5361C24.8516 18.1715 24.8105 17.8662 24.7285 17.6201C24.6465 17.374 24.5212 17.1895 24.3525 17.0664C24.1839 16.9434 23.9674 16.8818 23.7031 16.8818C23.3158 16.8818 23.0104 16.9798 22.7871 17.1758C22.5684 17.3672 22.4111 17.652 22.3154 18.0303C22.2243 18.404 22.1787 18.862 22.1787 19.4043V23H20.0938V15.3574H21.6865L21.9668 16.335H22.083C22.238 16.0706 22.4316 15.8564 22.6641 15.6924C22.901 15.5283 23.1608 15.4076 23.4434 15.3301C23.7259 15.2526 24.013 15.2139 24.3047 15.2139C24.8652 15.2139 25.3392 15.305 25.7266 15.4873C26.1185 15.6696 26.4193 15.9521 26.6289 16.335H26.8135C27.0413 15.943 27.3626 15.6582 27.7773 15.4805C28.1966 15.3027 28.6273 15.2139 29.0693 15.2139ZM36.509 15.2139C37.2154 15.2139 37.8238 15.3506 38.3342 15.624C38.8446 15.8929 39.2388 16.2848 39.5168 16.7998C39.7948 17.3148 39.9338 17.9437 39.9338 18.6865V19.6982H35.0051C35.0279 20.2861 35.2034 20.7487 35.5315 21.0859C35.8642 21.4186 36.3245 21.585 36.9123 21.585C37.4 21.585 37.8466 21.5348 38.2522 21.4346C38.6578 21.3343 39.0748 21.1839 39.5032 20.9834V22.5967C39.1249 22.7835 38.7284 22.9202 38.3137 23.0068C37.9036 23.0934 37.4045 23.1367 36.8166 23.1367C36.051 23.1367 35.372 22.9954 34.7795 22.7129C34.1916 22.4303 33.7291 21.9997 33.3918 21.4209C33.0592 20.8421 32.8928 20.113 32.8928 19.2334C32.8928 18.3402 33.0432 17.5973 33.344 17.0049C33.6493 16.4079 34.0732 15.9613 34.6155 15.665C35.1578 15.3643 35.789 15.2139 36.509 15.2139ZM36.5227 16.6973C36.1171 16.6973 35.7799 16.8271 35.511 17.0869C35.2467 17.3467 35.094 17.7546 35.053 18.3105H37.9788C37.9742 18.0007 37.9172 17.7249 37.8079 17.4834C37.703 17.2419 37.5435 17.0505 37.3293 16.9092C37.1197 16.7679 36.8508 16.6973 36.5227 16.6973ZM45.48 15.2139C46.2957 15.2139 46.952 15.4372 47.4487 15.8838C47.9455 16.3258 48.1938 17.0368 48.1938 18.0166V23H46.1089V18.5361C46.1089 17.9893 46.0086 17.5768 45.8081 17.2988C45.6121 17.0208 45.3022 16.8818 44.8784 16.8818C44.2404 16.8818 43.8052 17.0983 43.5727 17.5312C43.3403 17.9642 43.2241 18.5885 43.2241 19.4043V23H41.1391V15.3574H42.7319L43.0122 16.335H43.1284C43.2925 16.0706 43.4953 15.8564 43.7368 15.6924C43.9829 15.5283 44.254 15.4076 44.5503 15.3301C44.8511 15.2526 45.161 15.2139 45.48 15.2139ZM56.864 15.3574V23H55.2644L54.9841 22.0225H54.8747C54.7107 22.2822 54.5056 22.4941 54.2595 22.6582C54.0134 22.8223 53.7422 22.943 53.446 23.0205C53.1498 23.098 52.8422 23.1367 52.5232 23.1367C51.9763 23.1367 51.5001 23.041 51.0945 22.8496C50.6889 22.6536 50.3721 22.3506 50.1443 21.9404C49.921 21.5303 49.8093 20.9971 49.8093 20.3408V15.3574H51.8943V19.8213C51.8943 20.3682 51.9922 20.7806 52.1882 21.0586C52.3842 21.3366 52.6963 21.4756 53.1247 21.4756C53.5486 21.4756 53.8812 21.3799 54.1228 21.1885C54.3643 20.9925 54.5329 20.7077 54.6286 20.334C54.7289 19.9557 54.779 19.4954 54.779 18.9531V15.3574H56.864Z" fill="white"/>
<line x1="68" y1="11.5" x2="91" y2="11.5" stroke="white" stroke-width="3"/>
<line x1="68" y1="11.5" x2="91" y2="11.5" stroke="white" stroke-width="3"/>
<line x1="68" y1="11.5" x2="91" y2="11.5" stroke="white" stroke-width="3"/>
<line x1="77" y1="20.5" x2="91" y2="20.5" stroke="white" stroke-width="3"/>
<line x1="77" y1="20.5" x2="91" y2="20.5" stroke="white" stroke-width="3"/>
<line x1="77" y1="20.5" x2="91" y2="20.5" stroke="white" stroke-width="3"/>
<rect x="0.5" y="0.5" width="109" height="34" rx="5.5" stroke="white"/>
</svg>
