<svg width="273" height="156" viewBox="0 0 273 156" fill="none" xmlns="http://www.w3.org/2000/svg">
<path d="M59.625 27.8125V44H28.3125V61.1875C32.2292 56.5625 37.2708 54.25 43.4375 54.25C50.3958 54.25 55.6458 56.2083 59.1875 60.125C62.7708 64 64.5625 71.4792 64.5625 82.5625V97C64.5625 104.167 64.2083 109.438 63.5 112.812C62.8333 116.146 61.375 119.25 59.125 122.125C56.875 124.958 53.7292 127.146 49.6875 128.688C45.6875 130.188 40.7917 130.938 35 130.938C28.5 130.938 22.7708 129.812 17.8125 127.562C12.8542 125.271 9.33333 121.875 7.25 117.375C5.16667 112.875 4.125 105.917 4.125 96.5V91H29.375V97.3125C29.375 103.854 29.6042 108.5 30.0625 111.25C30.5208 114 32.1042 115.375 34.8125 115.375C36.0625 115.375 37.0625 114.979 37.8125 114.188C38.6042 113.396 39.0208 112.542 39.0625 111.625C39.1458 110.708 39.2292 106.729 39.3125 99.6875V79.625C39.3125 75.8333 38.9167 73.25 38.125 71.875C37.3333 70.5 36.0208 69.8125 34.1875 69.8125C33.0208 69.8125 32.0417 70.1667 31.25 70.875C30.4583 71.5833 29.9375 72.3542 29.6875 73.1875C29.4792 73.9792 29.375 75.8542 29.375 78.8125H4.375L5.4375 27.8125H59.625Z" fill="black"/>
<path d="M95.3 29.8C95.8067 29.8 96.2267 29.8733 96.56 30.02C96.8933 30.1667 97.0667 30.3333 97.08 30.52C96.9733 30.68 96.6133 31.1133 96 31.82L95.16 32.76C93.8133 34.36 92.7533 35.58 91.98 36.42C91.22 37.2467 90.6333 37.8067 90.22 38.1C90.14 38.1533 90.02 38.2133 89.86 38.28C89.7933 38.7733 89.5733 39.78 89.2 41.3L88.98 42.18C88.8867 42.5667 88.7467 42.8267 88.56 42.96C88.3867 43.0933 88.0333 43.16 87.5 43.16C87.1 43.16 86.8133 43.0933 86.64 42.96C86.4667 42.8267 86.38 42.5867 86.38 42.24C86.38 42.0933 86.4 41.9533 86.44 41.82L87.24 38.62C87.2667 38.5533 87.2933 38.44 87.32 38.28C87.0933 38.2 86.9467 38.0933 86.88 37.96C86.8267 37.8133 86.7867 37.5733 86.76 37.24C86.68 36.2267 86.6133 35.4333 86.56 34.86C86.5467 34.6733 86.5 34.12 86.42 33.2C86.34 32.2667 86.3 31.38 86.3 30.54C86.3 30.34 86.44 30.1733 86.72 30.04C87.0133 29.8933 87.38 29.82 87.82 29.82C88.22 29.82 88.5133 29.8933 88.7 30.04C88.8867 30.1733 88.98 30.3867 88.98 30.68L89 35.78V37.04C90.08 35.52 91.3 33.9333 92.66 32.28C94.0333 30.6267 94.9133 29.8 95.3 29.8ZM97.9267 43.42C96.6201 43.42 95.6667 43.16 95.0667 42.64C94.4667 42.12 94.1667 41.4267 94.1667 40.56C94.1667 39.2933 94.4801 38.12 95.1067 37.04C95.7467 35.96 96.5934 35.1067 97.6467 34.48C98.7134 33.84 99.8601 33.52 101.087 33.52C101.833 33.52 102.46 33.7333 102.967 34.16C103.473 34.5733 103.727 35.1867 103.727 36C103.727 36.4667 103.573 36.8533 103.267 37.16C102.973 37.4533 102.547 37.72 101.987 37.96C101.427 38.1867 100.52 38.5133 99.2667 38.94C98.1334 39.3133 97.2134 39.6267 96.5067 39.88C96.4534 40.08 96.4267 40.2867 96.4267 40.5C96.4267 40.8733 96.5801 41.16 96.8867 41.36C97.2067 41.56 97.6534 41.66 98.2267 41.66C98.5867 41.66 99.0001 41.5867 99.4667 41.44C99.9334 41.2933 100.227 41.1067 100.347 40.88C100.8 40.0533 101.213 39.64 101.587 39.64C102.133 39.64 102.5 39.7467 102.687 39.96C102.887 40.16 102.993 40.3867 103.007 40.64C102.847 41.0667 102.533 41.5 102.067 41.94C101.6 42.3667 101.007 42.72 100.287 43C99.5667 43.28 98.7801 43.42 97.9267 43.42ZM97.0667 38.04C98.3867 37.6133 99.4734 37.22 100.327 36.86C101.18 36.4867 101.607 36.12 101.607 35.76C101.607 35.6 101.52 35.4733 101.347 35.38C101.173 35.2733 100.987 35.22 100.787 35.22C100.387 35.22 99.9267 35.3733 99.4067 35.68C98.9001 35.9867 98.4267 36.36 97.9867 36.8C97.5467 37.24 97.2401 37.6533 97.0667 38.04ZM112.52 42.66C112.427 42.9 112.207 43.06 111.86 43.14C111.527 43.2333 111.233 43.28 110.98 43.28C110.74 43.28 110.58 43.22 110.5 43.1C110.433 42.9933 110.373 42.8267 110.32 42.6C110.267 42.3733 110.233 42.22 110.22 42.14C109.647 42.5267 109.06 42.82 108.46 43.02C107.873 43.2333 107.38 43.34 106.98 43.34C106.633 43.34 106.24 43.2267 105.8 43C105.373 42.7733 105.007 42.4667 104.7 42.08C104.393 41.6933 104.24 41.2667 104.24 40.8C104.24 40.0533 104.487 39.1 104.98 37.94C105.473 36.78 106.167 35.7667 107.06 34.9C107.967 34.0333 109.02 33.6 110.22 33.6C111.273 33.6 112.213 33.7667 113.04 34.1C113.867 34.4333 114.28 34.9067 114.28 35.52C113.907 36.2133 113.5 37.2533 113.06 38.64C112.633 40.0267 112.42 41.0533 112.42 41.72C112.42 42.16 112.453 42.4733 112.52 42.66ZM110.26 40.46C110.367 39.8733 110.547 39.18 110.8 38.38C111.067 37.5667 111.42 36.7533 111.86 35.94C111.793 35.6733 111.58 35.5 111.22 35.42C110.873 35.3267 110.56 35.28 110.28 35.28C109.787 35.28 109.253 35.6133 108.68 36.28C108.107 36.9467 107.613 37.7267 107.2 38.62C106.8 39.5 106.6 40.2133 106.6 40.76C106.6 41.0267 106.673 41.22 106.82 41.34C106.967 41.4467 107.153 41.5 107.38 41.5C107.687 41.5 108.173 41.3867 108.84 41.16C109.52 40.92 109.993 40.6867 110.26 40.46ZM116.919 42.24C116.906 42.32 116.873 42.48 116.819 42.72C116.779 42.9467 116.666 43.1067 116.479 43.2C116.306 43.2933 116.026 43.34 115.639 43.34C115.199 43.34 114.879 43.2933 114.679 43.2C114.479 43.1067 114.379 42.9067 114.379 42.6L115.339 38.78C115.873 36.58 116.226 35.18 116.399 34.58L115.899 33.98C115.859 33.94 115.839 33.8933 115.839 33.84C115.839 33.7067 115.986 33.6 116.279 33.52C116.573 33.4267 116.979 33.38 117.499 33.38C117.966 33.38 118.279 33.5133 118.439 33.78C118.599 34.0333 118.699 34.3667 118.739 34.78L118.599 35.3C119.026 34.78 119.519 34.3533 120.079 34.02C120.653 33.6733 121.159 33.5 121.599 33.5C122.173 33.5 122.619 33.6 122.939 33.8C123.259 34 123.419 34.26 123.419 34.58C123.419 34.86 123.319 35.1533 123.119 35.46C122.933 35.7533 122.693 36.0067 122.399 36.22C122.106 36.42 121.819 36.5333 121.539 36.56C121.273 36.56 121.093 36.5267 120.999 36.46C120.906 36.3933 120.859 36.2933 120.859 36.16L120.979 35.5C119.913 35.7933 118.946 36.5 118.079 37.62L116.919 42.24ZM126.102 36.42C126.102 36.6867 126.222 36.9 126.462 37.06C126.702 37.22 127.082 37.4 127.602 37.6C128.162 37.8267 128.616 38.04 128.962 38.24C129.309 38.44 129.609 38.7333 129.862 39.12C130.129 39.4933 130.262 39.9733 130.262 40.56C130.262 41.52 129.862 42.26 129.062 42.78C128.276 43.2867 127.216 43.54 125.882 43.54C125.229 43.54 124.616 43.4333 124.042 43.22C123.482 43.02 123.036 42.7667 122.702 42.46C122.369 42.1533 122.202 41.8467 122.202 41.54C122.202 41.22 122.342 40.96 122.622 40.76C122.902 40.5467 123.296 40.4067 123.802 40.34C123.816 40.6067 123.956 40.86 124.222 41.1C124.489 41.3267 124.802 41.5133 125.162 41.66C125.536 41.7933 125.856 41.86 126.122 41.86C126.576 41.86 126.989 41.74 127.362 41.5C127.736 41.2467 127.922 40.9533 127.922 40.62C127.922 40.0067 127.329 39.52 126.142 39.16C125.382 38.9333 124.796 38.5733 124.382 38.08C123.982 37.5867 123.782 37.0667 123.782 36.52C123.782 35.56 124.176 34.82 124.962 34.3C125.762 33.78 126.829 33.52 128.162 33.52C128.816 33.52 129.396 33.62 129.902 33.82C130.422 34.02 130.822 34.28 131.102 34.6C131.382 34.9067 131.522 35.2133 131.522 35.52C131.522 35.84 131.382 36.1067 131.102 36.32C130.822 36.52 130.429 36.6533 129.922 36.72C129.909 36.4533 129.789 36.2067 129.562 35.98C129.349 35.74 129.089 35.5533 128.782 35.42C128.476 35.2733 128.189 35.2 127.922 35.2C127.469 35.2 127.049 35.32 126.662 35.56C126.289 35.8 126.102 36.0867 126.102 36.42ZM141.917 43.42C140.33 43.42 139.144 42.9067 138.357 41.88C137.57 40.8533 137.177 39.46 137.177 37.7C137.177 36.2467 137.49 34.9 138.117 33.66C138.744 32.42 139.617 31.4333 140.737 30.7C141.857 29.9667 143.117 29.6 144.517 29.6C145.877 29.6 146.964 30.0667 147.777 31C148.604 31.92 149.017 33.3 149.017 35.14C149.017 36.4467 148.71 37.7467 148.097 39.04C147.497 40.32 146.657 41.3733 145.577 42.2C144.497 43.0133 143.277 43.42 141.917 43.42ZM142.197 41.62C142.85 41.62 143.49 41.2533 144.117 40.52C144.744 39.7867 145.25 38.8467 145.637 37.7C146.037 36.5533 146.237 35.3867 146.237 34.2C146.237 33.2933 146.084 32.64 145.777 32.24C145.484 31.8267 144.957 31.62 144.197 31.62C143.357 31.62 142.61 31.9867 141.957 32.72C141.304 33.4533 140.797 34.3667 140.437 35.46C140.077 36.5533 139.897 37.6133 139.897 38.64C139.897 39.24 140.004 39.7667 140.217 40.22C140.444 40.6733 140.73 41.02 141.077 41.26C141.437 41.5 141.81 41.62 142.197 41.62ZM160.006 29.54C159.966 30.0067 159.832 30.3267 159.606 30.5C159.379 30.66 159.132 30.74 158.866 30.74C158.799 30.74 158.726 30.7333 158.646 30.72C158.579 30.7067 158.412 30.7 158.146 30.7C157.692 30.7 157.272 30.82 156.886 31.06C156.499 31.3 156.259 31.62 156.166 32.02L155.846 33.44L157.946 33.36C158.426 33.36 158.666 33.6533 158.666 34.24C158.666 34.4667 158.572 34.6733 158.386 34.86C158.199 35.0333 157.992 35.14 157.766 35.18L155.406 35.3L153.706 42.52C153.599 42.7333 153.432 42.92 153.206 43.08C152.979 43.24 152.732 43.32 152.466 43.32C152.226 43.32 151.979 43.2267 151.726 43.04C151.472 42.8667 151.339 42.6333 151.326 42.34V42.22L152.946 35.42H151.506C151.292 35.42 151.132 35.3667 151.026 35.26C150.919 35.14 150.866 34.9867 150.866 34.8C150.866 34.4667 150.986 34.1333 151.226 33.8C151.239 33.76 151.572 33.72 152.226 33.68C152.799 33.6533 153.199 33.6267 153.426 33.6L153.706 32.34C153.986 31.0333 154.452 30.1067 155.106 29.56C155.772 29.0133 156.699 28.74 157.886 28.74C158.432 28.74 158.846 28.8067 159.126 28.94C159.419 29.06 159.712 29.26 160.006 29.54ZM96.38 74.52C96.18 75.12 95.78 75.7267 95.18 76.34C94.5933 76.94 93.8467 77.44 92.94 77.84C92.0467 78.2267 91.0667 78.42 90 78.42C88.3733 78.42 87.18 78.0267 86.42 77.24C85.66 76.44 85.28 75.42 85.28 74.18C85.28 72.42 85.6733 70.8267 86.46 69.4C87.2467 67.96 88.3067 66.8333 89.64 66.02C90.9733 65.1933 92.4133 64.78 93.96 64.78C94.5733 64.78 95.1333 64.92 95.64 65.2C96.1467 65.48 96.5467 65.8867 96.84 66.42C97.1333 66.94 97.28 67.5533 97.28 68.26C97.28 68.66 97.1267 69 96.82 69.28C96.5267 69.56 96.1267 69.7 95.62 69.7C95.22 69.7 94.9467 69.5933 94.8 69.38C94.6667 69.1667 94.6 68.8933 94.6 68.56L94.62 67.92C94.62 67.68 94.4867 67.4467 94.22 67.22C93.9533 66.9933 93.7067 66.88 93.48 66.88C92.7333 66.88 91.9133 67.22 91.02 67.9C90.1267 68.5667 89.3733 69.4733 88.76 70.62C88.1467 71.7533 87.84 72.9867 87.84 74.32C87.84 74.9333 88.08 75.4333 88.56 75.82C89.04 76.2067 89.6467 76.4 90.38 76.4C90.62 76.4 90.9333 76.32 91.32 76.16C91.7067 76 92.06 75.8 92.38 75.56C92.7133 75.32 92.9333 75.0867 93.04 74.86C93.2 74.5267 93.4267 74.1533 93.72 73.74C94.0133 73.3267 94.3067 73.12 94.6 73.12C95.28 73.12 95.74 73.2667 95.98 73.56C96.2333 73.8533 96.3667 74.1733 96.38 74.52ZM101.72 78.42C100.547 78.42 99.6338 78.02 98.9805 77.22C98.3271 76.42 98.0005 75.4 98.0005 74.16C98.0005 73.12 98.2471 72.14 98.7405 71.22C99.2471 70.3 99.9338 69.56 100.8 69C101.667 68.44 102.62 68.16 103.66 68.16C104.687 68.16 105.527 68.5 106.18 69.18C106.847 69.8467 107.18 70.8333 107.18 72.14C107.18 73.06 106.927 74.0133 106.42 75C105.914 75.9867 105.234 76.8067 104.38 77.46C103.54 78.1 102.654 78.42 101.72 78.42ZM102.02 76.82C102.447 76.82 102.874 76.5533 103.3 76.02C103.74 75.4867 104.1 74.8133 104.38 74C104.66 73.1867 104.8 72.3933 104.8 71.62C104.8 70.4333 104.307 69.84 103.32 69.84C102.774 69.84 102.274 70.1 101.82 70.62C101.367 71.14 101.007 71.7867 100.74 72.56C100.474 73.32 100.34 74.0333 100.34 74.7C100.34 75.0867 100.427 75.4467 100.6 75.78C100.774 76.1 100.987 76.3533 101.24 76.54C101.507 76.7267 101.767 76.82 102.02 76.82ZM109.157 68.86C109.117 68.82 109.097 68.7733 109.097 68.72C109.097 68.5867 109.243 68.48 109.537 68.4C109.83 68.3067 110.237 68.26 110.757 68.26C111.223 68.26 111.537 68.3933 111.697 68.66C111.857 68.9133 111.957 69.2467 111.997 69.66C111.97 69.7667 111.943 69.9133 111.917 70.1L111.817 70.58C112.203 70.1267 112.777 69.6867 113.537 69.26C114.297 68.82 114.89 68.6 115.317 68.6C115.983 68.6 116.443 68.72 116.697 68.96C116.963 69.1867 117.117 69.6267 117.157 70.28C117.65 69.8133 118.217 69.42 118.857 69.1C119.497 68.7667 120.057 68.6 120.537 68.6C121.043 68.6 121.51 68.7067 121.937 68.92C122.363 69.12 122.577 69.4467 122.577 69.9C122.577 70.02 122.57 70.1133 122.557 70.18C122.517 70.3933 122.437 70.6933 122.317 71.08C122.21 71.4533 122.13 71.7267 122.077 71.9C121.743 72.98 121.483 73.8933 121.297 74.64C121.123 75.3733 121.017 76.0933 120.977 76.8L121.257 77.78C121.097 78.0867 120.87 78.3267 120.577 78.5C120.297 78.6867 119.883 78.78 119.337 78.78C119.017 78.78 118.783 78.6733 118.637 78.46C118.49 78.2467 118.417 77.98 118.417 77.66C118.417 77.5933 118.423 77.52 118.437 77.44C118.45 77.36 118.457 77.2867 118.457 77.22C118.483 76.4733 118.59 75.72 118.777 74.96C118.977 74.1867 119.23 73.32 119.537 72.36C119.817 71.52 119.957 71.0067 119.957 70.82C119.957 70.74 119.943 70.66 119.917 70.58C119.903 70.4867 119.883 70.44 119.857 70.44C119.55 70.44 119.043 70.5867 118.337 70.88C117.643 71.1733 117.177 71.4667 116.937 71.76C116.683 72.5733 116.263 74.2667 115.677 76.84L115.557 77.4C115.49 77.7467 115.423 77.9867 115.357 78.12C115.303 78.2533 115.19 78.3533 115.017 78.42C114.843 78.4867 114.563 78.52 114.177 78.52C113.257 78.52 112.797 78.3333 112.797 77.96C112.903 77.6667 113.197 76.54 113.677 74.58C113.97 73.3667 114.303 72.0267 114.677 70.56C114.597 70.6 114.45 70.66 114.237 70.74C113.597 70.9933 113.037 71.2533 112.557 71.52C112.09 71.7867 111.71 72.1 111.417 72.46L110.897 74.58C110.817 74.9 110.743 75.2 110.677 75.48C110.61 75.7467 110.55 75.9733 110.497 76.16C110.43 76.3867 110.383 76.6933 110.357 77.08C110.33 77.3467 110.29 77.54 110.237 77.66C110.197 77.78 110.083 77.88 109.897 77.96C109.723 78.0267 109.443 78.06 109.057 78.06C108.617 78.06 108.283 78.0133 108.057 77.92C107.83 77.8267 107.717 77.6267 107.717 77.32C107.717 77.1733 107.883 76.3933 108.217 74.98C108.563 73.5667 109.03 71.7267 109.617 69.46L109.157 68.86ZM125.628 77.08C125.562 77.24 125.502 77.4067 125.448 77.58C125.395 77.7933 125.328 77.9333 125.248 78C125.182 78.08 125.048 78.12 124.848 78.12L124.288 78.14C123.955 78.14 123.688 78.0733 123.488 77.94C123.288 77.7933 123.175 77.5067 123.148 77.08C123.308 76.6933 123.442 76.2667 123.548 75.8C123.708 75.1467 123.868 74.5 124.028 73.86C124.188 73.22 124.342 72.6 124.488 72C124.688 71.2133 124.982 70.04 125.368 68.48C125.755 66.9067 126.055 65.66 126.268 64.74C126.268 64.54 126.322 64.26 126.428 63.9C126.535 63.54 126.695 63.22 126.908 62.94C127.122 62.6467 127.382 62.5 127.688 62.5C127.995 62.5 128.282 62.6133 128.548 62.84C128.815 63.0533 128.955 63.3267 128.968 63.66L127.468 69.58C128.122 68.8333 128.922 68.46 129.868 68.46C130.495 68.46 131.048 68.6333 131.528 68.98C132.008 69.3267 132.382 69.7867 132.648 70.36C132.915 70.9333 133.048 71.5467 133.048 72.2C133.048 73.1867 132.855 74.1467 132.468 75.08C132.095 76.0133 131.508 76.7867 130.708 77.4C129.922 78 128.955 78.3 127.808 78.3C127.475 78.3 127.062 78.18 126.568 77.94C126.088 77.7 125.775 77.4133 125.628 77.08ZM126.108 75.42C126.282 75.7267 126.542 76 126.888 76.24C127.235 76.48 127.548 76.6 127.828 76.6C128.455 76.6 128.988 76.3933 129.428 75.98C129.882 75.5533 130.222 75.0267 130.448 74.4C130.675 73.7733 130.788 73.1533 130.788 72.54C130.788 71.0067 130.342 70.24 129.448 70.24C128.862 70.24 128.315 70.4333 127.808 70.82C127.315 71.2067 126.982 71.7267 126.808 72.38L126.108 75.42ZM136.372 66.12C136.372 65.7067 136.499 65.34 136.752 65.02C137.019 64.7 137.385 64.54 137.852 64.54C138.345 64.54 138.772 64.6933 139.132 65C139.505 65.3067 139.692 65.6533 139.692 66.04C139.692 66.4267 139.505 66.76 139.132 67.04C138.759 67.32 138.325 67.46 137.832 67.46C137.352 67.46 136.985 67.34 136.732 67.1C136.492 66.8467 136.372 66.52 136.372 66.12ZM134.472 76.66C134.472 76.42 135.065 74.02 136.252 69.46L136.132 68.72C136.132 68.5733 136.219 68.46 136.392 68.38C136.565 68.3 136.899 68.26 137.392 68.26C137.779 68.26 138.059 68.3667 138.232 68.58C138.419 68.7933 138.512 69.0467 138.512 69.34C138.512 69.42 138.499 69.5267 138.472 69.66L136.692 76.86L136.812 77.6C136.812 77.7467 136.725 77.86 136.552 77.94C136.379 78.02 136.045 78.06 135.552 78.06C135.112 78.06 134.825 77.9333 134.692 77.68C134.559 77.4133 134.485 77.0733 134.472 76.66ZM141.579 68.3C142.206 67.9667 142.726 67.8 143.139 67.8C143.593 67.8 143.846 68.0333 143.899 68.5L143.099 71.48C143.979 70.2133 144.799 69.34 145.559 68.86C146.319 68.3667 146.999 68.12 147.599 68.12C148.306 68.12 148.819 68.2533 149.139 68.52C149.473 68.7733 149.646 69.18 149.659 69.74C149.206 70.9667 148.826 72.1333 148.519 73.24C148.226 74.3467 148.079 75.3667 148.079 76.3V76.76C148.079 77.1333 147.973 77.38 147.759 77.5C147.559 77.6067 147.153 77.66 146.539 77.66C146.299 77.66 146.073 77.62 145.859 77.54C145.659 77.46 145.559 77.3267 145.559 77.14C145.559 76.6067 145.679 75.8267 145.919 74.8C146.159 73.7733 146.426 72.76 146.719 71.76C147.026 70.76 147.179 70.2867 147.179 70.34C147.179 70.1533 147.073 70.06 146.859 70.06C146.579 70.06 146.126 70.3067 145.499 70.8C144.873 71.2933 144.233 72.0667 143.579 73.12C142.926 74.16 142.406 75.4667 142.019 77.04C142.006 77.12 141.979 77.2667 141.939 77.48C141.899 77.6933 141.793 77.8467 141.619 77.94C141.446 78.02 141.166 78.06 140.779 78.06C140.339 78.06 140.013 78.0133 139.799 77.92C139.586 77.8267 139.479 77.6267 139.479 77.32L140.079 74.76C140.239 74.0667 140.446 73.1867 140.699 72.12C140.953 71.04 141.246 69.7667 141.579 68.3ZM154.159 78.42C152.839 78.42 151.872 78.16 151.259 77.64C150.659 77.12 150.359 76.4267 150.359 75.56C150.359 74.2667 150.625 73.0933 151.159 72.04C151.692 70.9733 152.432 70.14 153.379 69.54C154.325 68.9267 155.405 68.62 156.619 68.62C157.379 68.62 158.012 68.8333 158.519 69.26C159.039 69.6867 159.299 70.32 159.299 71.16C159.299 72.0533 159.005 72.7533 158.419 73.26C157.845 73.7667 157.092 74.1333 156.159 74.36C155.239 74.5733 154.079 74.7467 152.679 74.88C152.639 75.0533 152.619 75.26 152.619 75.5C152.619 75.8733 152.779 76.16 153.099 76.36C153.419 76.56 153.865 76.66 154.439 76.66C154.852 76.66 155.332 76.5733 155.879 76.4C156.439 76.2267 156.865 75.94 157.159 75.54C157.332 75.3133 157.532 75.1333 157.759 75C157.999 74.8667 158.232 74.8 158.459 74.8C158.672 74.8 158.845 74.8733 158.979 75.02C159.125 75.1533 159.199 75.36 159.199 75.64C159.052 76.0667 158.745 76.5 158.279 76.94C157.812 77.3667 157.219 77.72 156.499 78C155.792 78.28 155.012 78.42 154.159 78.42ZM153.199 73.04C154.052 73.0267 154.925 72.8667 155.819 72.56C156.712 72.24 157.159 71.6867 157.159 70.9C157.159 70.7133 157.072 70.5733 156.899 70.48C156.725 70.3733 156.539 70.32 156.339 70.32C155.952 70.32 155.545 70.4667 155.119 70.76C154.705 71.04 154.325 71.3933 153.979 71.82C153.632 72.2333 153.372 72.64 153.199 73.04ZM168.947 63.18C169 62.98 169.154 62.82 169.407 62.7C169.674 62.5667 169.954 62.5 170.247 62.5C170.487 62.5 170.747 62.5533 171.027 62.66C171.307 62.7667 171.447 62.92 171.447 63.12L170.187 68.04C169.08 72.3467 168.434 74.9733 168.247 75.92C168.167 76.32 168.127 76.6267 168.127 76.84C168.127 77.2 168.167 77.5533 168.247 77.9C168.22 77.98 168.114 78.06 167.927 78.14C167.754 78.22 167.594 78.26 167.447 78.26C167.18 78.26 166.887 78.2267 166.567 78.16C166.247 78.0933 166.047 78.02 165.967 77.94C165.847 77.8333 165.787 77.62 165.787 77.3C165.787 77.06 165.814 76.8333 165.867 76.62C165.587 77.02 165.16 77.3533 164.587 77.62C164.027 77.8733 163.574 78 163.227 78C161.187 78 160.167 76.9 160.167 74.7C160.167 73.74 160.38 72.78 160.807 71.82C161.247 70.86 161.867 70.0667 162.667 69.44C163.48 68.8133 164.42 68.5 165.487 68.5C165.78 68.5 166.107 68.62 166.467 68.86C166.827 69.0867 167.12 69.3467 167.347 69.64C167.64 68.4 167.9 67.3667 168.127 66.54C168.234 66.1 168.354 65.6 168.487 65.04C168.634 64.4667 168.787 63.8467 168.947 63.18ZM166.907 71.5C166.827 71.2067 166.634 70.94 166.327 70.7C166.034 70.4467 165.794 70.32 165.607 70.32C164.994 70.32 164.42 70.52 163.887 70.92C163.354 71.32 162.927 71.84 162.607 72.48C162.3 73.12 162.147 73.78 162.147 74.46C162.147 74.9667 162.24 75.42 162.427 75.82C162.614 76.22 162.9 76.42 163.287 76.42C163.62 76.42 164.007 76.3133 164.447 76.1C164.9 75.8733 165.3 75.5867 165.647 75.24C165.994 74.88 166.207 74.5133 166.287 74.14L166.907 71.5ZM186.829 64.48C187.309 64.7333 187.549 65.0533 187.549 65.44C187.549 65.68 187.416 65.9067 187.149 66.12C186.896 66.32 186.609 66.46 186.289 66.54L185.409 66.6C185.009 66.6267 184.469 66.6667 183.789 66.72C183.109 66.76 182.309 66.82 181.389 66.9L180.489 70.48C181.329 70.3467 182.023 70.24 182.569 70.16C183.129 70.08 183.749 70.0133 184.429 69.96C184.949 70.1867 185.209 70.4933 185.209 70.88C185.209 71.12 185.089 71.3533 184.849 71.58C184.609 71.8067 184.336 71.9667 184.029 72.06L182.889 72.18C181.676 72.3133 180.703 72.4467 179.969 72.58C179.809 73.3133 179.583 74.24 179.289 75.36L179.129 75.98C180.903 75.6467 182.616 75.4133 184.269 75.28C184.789 75.5067 185.049 75.8133 185.049 76.2C185.049 76.44 184.929 76.6733 184.689 76.9C184.449 77.1267 184.176 77.2867 183.869 77.38C181.336 77.6733 179.549 77.92 178.509 78.12C178.389 78.2 178.129 78.24 177.729 78.24C177.356 78.24 177.023 78.0667 176.729 77.72C176.449 77.3733 176.309 77.0133 176.309 76.64C176.309 76.4933 176.329 76.3533 176.369 76.22L178.649 67.2H178.589C178.576 67.0533 178.483 66.8733 178.309 66.66C178.296 66.6333 178.243 66.5533 178.149 66.42C178.056 66.2733 178.009 66.1333 178.009 66C178.036 65.6133 178.289 65.3067 178.769 65.08C179.769 64.9467 181.169 64.82 182.969 64.7C184.769 64.5667 186.056 64.4933 186.829 64.48ZM195.623 68.32C196.063 68.32 196.383 68.44 196.583 68.68C196.783 68.9067 196.883 69.1467 196.883 69.4C196.883 69.6 196.856 69.74 196.803 69.82C196.75 69.8867 196.643 69.9667 196.483 70.06C196.243 70.22 196.023 70.38 195.823 70.54L194.463 71.96L192.783 73.74C193.25 74.62 193.743 75.4867 194.263 76.34C194.516 76.74 194.643 77.1067 194.643 77.44C194.643 77.6267 194.543 77.7933 194.343 77.94C194.183 78.06 193.956 78.12 193.663 78.12C193.37 78.12 192.99 77.8467 192.523 77.3C192.163 76.8467 191.73 76.2 191.223 75.36C189.823 76.8267 188.89 77.76 188.423 78.16C188.236 78.32 187.976 78.4 187.643 78.4C187.456 78.4 187.21 78.2933 186.903 78.08C186.61 77.8667 186.463 77.6733 186.463 77.5C186.463 77.38 186.47 77.2867 186.483 77.22L186.883 76.86C187.07 76.7 187.716 76.0133 188.823 74.8L190.123 73.38C189.363 71.9667 188.763 70.7667 188.323 69.78C188.243 69.58 188.203 69.4067 188.203 69.26C188.203 68.9667 188.363 68.7267 188.683 68.54C189.003 68.34 189.33 68.24 189.663 68.24C189.81 68.24 189.93 68.28 190.023 68.36C190.13 68.4267 190.236 68.5733 190.343 68.8C190.69 69.5733 191.143 70.5267 191.703 71.66C193.81 69.4333 195.116 68.32 195.623 68.32ZM199.398 77.12C199.384 77.2 199.224 77.86 198.918 79.1C198.611 80.34 198.391 81.14 198.258 81.5C198.204 81.6467 198.044 81.7533 197.778 81.82C197.511 81.9 197.318 81.94 197.198 81.94C196.624 81.94 196.318 81.5733 196.278 80.84C196.491 79.3333 196.858 77.38 197.378 74.98C197.911 72.5667 198.398 70.5 198.838 68.78C198.851 68.58 198.964 68.3867 199.178 68.2C199.404 68 199.604 67.9 199.778 67.9C199.898 67.9 200.011 67.8933 200.118 67.88C200.238 67.8533 200.344 67.84 200.438 67.84C200.611 67.84 200.738 67.8933 200.818 68C200.898 68.1067 200.938 68.3133 200.938 68.62C200.938 68.9533 200.891 69.3933 200.798 69.94C201.131 69.42 201.498 69.0333 201.898 68.78C202.298 68.5267 202.684 68.4 203.058 68.4C203.804 68.4 204.464 68.6 205.038 69C205.611 69.3867 206.051 69.9067 206.358 70.56C206.664 71.2133 206.818 71.92 206.818 72.68C206.818 73.6 206.618 74.4933 206.218 75.36C205.818 76.2267 205.238 76.9333 204.478 77.48C203.718 78.0267 202.838 78.3 201.838 78.3C201.491 78.3 201.044 78.1867 200.498 77.96C199.951 77.72 199.584 77.44 199.398 77.12ZM199.958 74.58C199.944 74.66 199.938 74.7733 199.938 74.92C199.951 75.2533 200.064 75.5467 200.278 75.8C200.491 76.0533 200.738 76.2533 201.018 76.4C201.298 76.5333 201.531 76.6 201.718 76.6C202.264 76.6 202.751 76.4067 203.178 76.02C203.618 75.6333 203.958 75.1467 204.198 74.56C204.438 73.96 204.558 73.3533 204.558 72.74C204.558 71.0333 203.938 70.18 202.698 70.18C202.098 70.18 201.624 70.3867 201.278 70.8C200.931 71.2133 200.624 71.9 200.358 72.86L199.958 74.58ZM211.364 78.42C210.058 78.42 209.104 78.16 208.504 77.64C207.904 77.12 207.604 76.4267 207.604 75.56C207.604 74.2933 207.918 73.12 208.544 72.04C209.184 70.96 210.031 70.1067 211.084 69.48C212.151 68.84 213.298 68.52 214.524 68.52C215.271 68.52 215.898 68.7333 216.404 69.16C216.911 69.5733 217.164 70.1867 217.164 71C217.164 71.4667 217.011 71.8533 216.704 72.16C216.411 72.4533 215.984 72.72 215.424 72.96C214.864 73.1867 213.958 73.5133 212.704 73.94C211.571 74.3133 210.651 74.6267 209.944 74.88C209.891 75.08 209.864 75.2867 209.864 75.5C209.864 75.8733 210.018 76.16 210.324 76.36C210.644 76.56 211.091 76.66 211.664 76.66C212.024 76.66 212.438 76.5867 212.904 76.44C213.371 76.2933 213.664 76.1067 213.784 75.88C214.238 75.0533 214.651 74.64 215.024 74.64C215.571 74.64 215.938 74.7467 216.124 74.96C216.324 75.16 216.431 75.3867 216.444 75.64C216.284 76.0667 215.971 76.5 215.504 76.94C215.038 77.3667 214.444 77.72 213.724 78C213.004 78.28 212.218 78.42 211.364 78.42ZM210.504 73.04C211.824 72.6133 212.911 72.22 213.764 71.86C214.618 71.4867 215.044 71.12 215.044 70.76C215.044 70.6 214.958 70.4733 214.784 70.38C214.611 70.2733 214.424 70.22 214.224 70.22C213.824 70.22 213.364 70.3733 212.844 70.68C212.338 70.9867 211.864 71.36 211.424 71.8C210.984 72.24 210.678 72.6533 210.504 73.04ZM220.318 77.24C220.304 77.32 220.271 77.48 220.218 77.72C220.178 77.9467 220.064 78.1067 219.878 78.2C219.704 78.2933 219.424 78.34 219.038 78.34C218.598 78.34 218.278 78.2933 218.078 78.2C217.878 78.1067 217.778 77.9067 217.778 77.6L218.738 73.78C219.271 71.58 219.624 70.18 219.798 69.58L219.298 68.98C219.258 68.94 219.238 68.8933 219.238 68.84C219.238 68.7067 219.384 68.6 219.678 68.52C219.971 68.4267 220.378 68.38 220.898 68.38C221.364 68.38 221.678 68.5133 221.838 68.78C221.998 69.0333 222.098 69.3667 222.138 69.78L221.998 70.3C222.424 69.78 222.918 69.3533 223.478 69.02C224.051 68.6733 224.558 68.5 224.998 68.5C225.571 68.5 226.018 68.6 226.338 68.8C226.658 69 226.818 69.26 226.818 69.58C226.818 69.86 226.718 70.1533 226.518 70.46C226.331 70.7533 226.091 71.0067 225.798 71.22C225.504 71.42 225.218 71.5333 224.938 71.56C224.671 71.56 224.491 71.5267 224.398 71.46C224.304 71.3933 224.258 71.2933 224.258 71.16L224.378 70.5C223.311 70.7933 222.344 71.5 221.478 72.62L220.318 77.24ZM228.501 66.12C228.501 65.7067 228.627 65.34 228.881 65.02C229.147 64.7 229.514 64.54 229.981 64.54C230.474 64.54 230.901 64.6933 231.261 65C231.634 65.3067 231.821 65.6533 231.821 66.04C231.821 66.4267 231.634 66.76 231.261 67.04C230.887 67.32 230.454 67.46 229.961 67.46C229.481 67.46 229.114 67.34 228.861 67.1C228.621 66.8467 228.501 66.52 228.501 66.12ZM226.601 76.66C226.601 76.42 227.194 74.02 228.381 69.46L228.261 68.72C228.261 68.5733 228.347 68.46 228.521 68.38C228.694 68.3 229.027 68.26 229.521 68.26C229.907 68.26 230.187 68.3667 230.361 68.58C230.547 68.7933 230.641 69.0467 230.641 69.34C230.641 69.42 230.627 69.5267 230.601 69.66L228.821 76.86L228.941 77.6C228.941 77.7467 228.854 77.86 228.681 77.94C228.507 78.02 228.174 78.06 227.681 78.06C227.241 78.06 226.954 77.9333 226.821 77.68C226.687 77.4133 226.614 77.0733 226.601 76.66ZM235.428 78.42C234.108 78.42 233.141 78.16 232.528 77.64C231.928 77.12 231.628 76.4267 231.628 75.56C231.628 74.2667 231.895 73.0933 232.428 72.04C232.961 70.9733 233.701 70.14 234.648 69.54C235.595 68.9267 236.675 68.62 237.888 68.62C238.648 68.62 239.281 68.8333 239.788 69.26C240.308 69.6867 240.568 70.32 240.568 71.16C240.568 72.0533 240.275 72.7533 239.688 73.26C239.115 73.7667 238.361 74.1333 237.428 74.36C236.508 74.5733 235.348 74.7467 233.948 74.88C233.908 75.0533 233.888 75.26 233.888 75.5C233.888 75.8733 234.048 76.16 234.368 76.36C234.688 76.56 235.135 76.66 235.708 76.66C236.121 76.66 236.601 76.5733 237.148 76.4C237.708 76.2267 238.135 75.94 238.428 75.54C238.601 75.3133 238.801 75.1333 239.028 75C239.268 74.8667 239.501 74.8 239.728 74.8C239.941 74.8 240.115 74.8733 240.248 75.02C240.395 75.1533 240.468 75.36 240.468 75.64C240.321 76.0667 240.015 76.5 239.548 76.94C239.081 77.3667 238.488 77.72 237.768 78C237.061 78.28 236.281 78.42 235.428 78.42ZM234.468 73.04C235.321 73.0267 236.195 72.8667 237.088 72.56C237.981 72.24 238.428 71.6867 238.428 70.9C238.428 70.7133 238.341 70.5733 238.168 70.48C237.995 70.3733 237.808 70.32 237.608 70.32C237.221 70.32 236.815 70.4667 236.388 70.76C235.975 71.04 235.595 71.3933 235.248 71.82C234.901 72.2333 234.641 72.64 234.468 73.04ZM243.457 68.3C244.11 67.9667 244.63 67.8 245.017 67.8C245.47 67.8 245.723 68.0333 245.777 68.5L245.117 70.96C245.397 70.5733 245.81 70.1933 246.357 69.82C246.903 69.4467 247.45 69.14 247.997 68.9C248.557 68.66 249.003 68.54 249.337 68.54C250.043 68.54 250.557 68.6733 250.877 68.94C251.197 69.1933 251.357 69.6 251.357 70.16C251.223 70.9067 251.023 71.8067 250.757 72.86C250.49 73.9 250.323 74.56 250.257 74.84C249.963 75.9333 249.757 76.7533 249.637 77.3C249.557 77.6333 249.477 77.8667 249.397 78C249.33 78.12 249.203 78.2067 249.017 78.26C248.843 78.3133 248.537 78.34 248.097 78.34C247.857 78.34 247.63 78.3 247.417 78.22C247.217 78.14 247.117 78.0067 247.117 77.82C247.157 77.38 247.29 76.7067 247.517 75.8C247.757 74.88 248.077 73.6933 248.477 72.24C248.743 71.3333 248.877 70.84 248.877 70.76C248.877 70.5733 248.77 70.48 248.557 70.48C248.25 70.48 247.79 70.6933 247.177 71.12C246.563 71.5333 245.93 72.2333 245.277 73.22C244.623 74.1933 244.11 75.4667 243.737 77.04C243.71 77.12 243.677 77.2667 243.637 77.48C243.597 77.6933 243.49 77.8467 243.317 77.94C243.143 78.02 242.863 78.06 242.477 78.06C242.037 78.06 241.71 78.0133 241.497 77.92C241.297 77.8267 241.197 77.6267 241.197 77.32L241.417 76.46C242.203 73.38 242.883 70.66 243.457 68.3ZM261.518 75.02C261.371 75.46 261.024 75.9467 260.478 76.48C259.944 77.0133 259.291 77.4733 258.518 77.86C257.744 78.2333 256.938 78.42 256.098 78.42C255.418 78.42 254.778 78.2933 254.178 78.04C253.591 77.7867 253.118 77.4 252.758 76.88C252.398 76.36 252.218 75.7267 252.218 74.98C252.218 73.7267 252.464 72.6133 252.958 71.64C253.451 70.6667 254.151 69.9067 255.058 69.36C255.978 68.8 257.038 68.52 258.238 68.52C259.011 68.52 259.678 68.7467 260.238 69.2C260.811 69.6533 261.104 70.2533 261.118 71C261.118 71.2933 261.018 71.54 260.818 71.74C260.618 71.9267 260.324 72.02 259.938 72.02C259.631 72.02 259.404 71.9533 259.258 71.82C259.124 71.6733 258.991 71.4533 258.858 71.16C258.724 70.8533 258.578 70.62 258.418 70.46C258.258 70.3 258.004 70.22 257.658 70.22C257.258 70.22 256.818 70.4333 256.338 70.86C255.858 71.2733 255.451 71.86 255.118 72.62C254.784 73.3667 254.618 74.2133 254.618 75.16C254.618 75.56 254.771 75.9133 255.078 76.22C255.398 76.5133 255.831 76.66 256.378 76.66C256.831 76.66 257.258 76.5133 257.658 76.22C258.058 75.9133 258.518 75.48 259.038 74.92C259.371 74.5733 259.631 74.32 259.818 74.16C260.018 74 260.191 73.92 260.338 73.92C261.004 73.92 261.398 74.2867 261.518 75.02ZM265.778 78.42C264.472 78.42 263.518 78.16 262.918 77.64C262.318 77.12 262.018 76.4267 262.018 75.56C262.018 74.2933 262.332 73.12 262.958 72.04C263.598 70.96 264.445 70.1067 265.498 69.48C266.565 68.84 267.712 68.52 268.938 68.52C269.685 68.52 270.312 68.7333 270.818 69.16C271.325 69.5733 271.578 70.1867 271.578 71C271.578 71.4667 271.425 71.8533 271.118 72.16C270.825 72.4533 270.398 72.72 269.838 72.96C269.278 73.1867 268.372 73.5133 267.118 73.94C265.985 74.3133 265.065 74.6267 264.358 74.88C264.305 75.08 264.278 75.2867 264.278 75.5C264.278 75.8733 264.432 76.16 264.738 76.36C265.058 76.56 265.505 76.66 266.078 76.66C266.438 76.66 266.852 76.5867 267.318 76.44C267.785 76.2933 268.078 76.1067 268.198 75.88C268.652 75.0533 269.065 74.64 269.438 74.64C269.985 74.64 270.352 74.7467 270.538 74.96C270.738 75.16 270.845 75.3867 270.858 75.64C270.698 76.0667 270.385 76.5 269.918 76.94C269.452 77.3667 268.858 77.72 268.138 78C267.418 78.28 266.632 78.42 265.778 78.42ZM264.918 73.04C266.238 72.6133 267.325 72.22 268.178 71.86C269.032 71.4867 269.458 71.12 269.458 70.76C269.458 70.6 269.372 70.4733 269.198 70.38C269.025 70.2733 268.838 70.22 268.638 70.22C268.238 70.22 267.778 70.3733 267.258 70.68C266.752 70.9867 266.278 71.36 265.838 71.8C265.398 72.24 265.092 72.6533 264.918 73.04Z" fill="black"/>
</svg>
